<svg width="804" height="914" viewBox="0 0 804 914" fill="none" xmlns="http://www.w3.org/2000/svg">
<path d="M764.645 767.577H113.75C113.75 767.577 93.0827 731.2 78.7502 658.08C64.4177 584.96 132.72 611.649 150.185 548.619C167.65 485.59 91.4552 498.879 97.8077 412.634C104.16 326.389 208.933 324.744 259.735 336.352C310.538 347.96 304.185 308.164 362.985 241.826C421.785 175.488 510.633 182.124 555.083 233.545C599.533 284.967 585.235 338.015 640.833 338.015C696.43 338.015 747.25 349.678 780.5 460.784C813.75 571.89 752.903 622.672 754.005 672.832C754.916 704.676 758.476 736.377 764.645 767.577Z" fill="#FFC100"/>
<path opacity="0.7" d="M764.645 767.577H113.75C113.75 767.577 93.0827 731.2 78.7502 658.08C64.4177 584.96 132.72 611.649 150.185 548.619C167.65 485.59 91.4552 498.879 97.8077 412.634C104.16 326.389 208.933 324.744 259.735 336.352C310.538 347.96 304.185 308.164 362.985 241.826C421.785 175.488 510.633 182.124 555.083 233.545C599.533 284.967 585.235 338.015 640.833 338.015C696.43 338.015 747.25 349.678 780.5 460.784C813.75 571.89 752.903 622.672 754.005 672.832C754.916 704.676 758.476 736.377 764.645 767.577Z" fill="white"/>
<path d="M376.967 767.577C361.025 742.223 292.967 635.614 273.052 632.762C253.645 629.984 184.677 737.781 166.022 767.577H376.967Z" fill="#2E353A" stroke="#2E353A" stroke-linecap="round" stroke-linejoin="round"/>
<path d="M464.24 144.65V390.497" stroke="#2E353A" stroke-width="3" stroke-linecap="round" stroke-linejoin="round"/>
<path d="M492.205 151.249V390.497" stroke="#2E353A" stroke-width="3" stroke-linecap="round" stroke-linejoin="round"/>
<path d="M522.865 282.17V513.906" stroke="#2E353A" stroke-width="3" stroke-linecap="round" stroke-linejoin="round"/>
<path d="M555.328 151.249V513.906" stroke="#2E353A" stroke-width="3" stroke-linecap="round" stroke-linejoin="round"/>
<path d="M587.79 151.249V397.096" stroke="#2E353A" stroke-width="3" stroke-linecap="round" stroke-linejoin="round"/>
<path d="M439.897 177.608H588.7" stroke="#2E353A" stroke-width="3" stroke-linecap="round" stroke-linejoin="round"/>
<path d="M439.897 232.247H601.265" stroke="#2E353A" stroke-width="3" stroke-linecap="round" stroke-linejoin="round"/>
<path d="M437.203 282.17H616.648" stroke="#2E353A" stroke-width="3" stroke-linecap="round" stroke-linejoin="round"/>
<path d="M434.49 337.76H616.647" stroke="#2E353A" stroke-width="3" stroke-linecap="round" stroke-linejoin="round"/>
<path d="M468.755 398.029H606.725" stroke="#2E353A" stroke-width="3" stroke-linecap="round" stroke-linejoin="round"/>
<path d="M504.822 456.433H595" stroke="#2E353A" stroke-width="3" stroke-linecap="round" stroke-linejoin="round"/>
<path d="M267.417 167.993L299.25 194.024" stroke="#2E353A" stroke-width="2" stroke-linecap="round" stroke-linejoin="round"/>
<path d="M331.083 140.537L342.16 157.884" stroke="#2E353A" stroke-width="2" stroke-linecap="round" stroke-linejoin="round"/>
<path d="M387.835 98.6023L397.53 130.41" stroke="#2E353A" stroke-width="2" stroke-linecap="round" stroke-linejoin="round"/>
<path d="M569.45 507.343H516.95V376.952H445.725V146.021C415.707 146.33 386.27 154.701 360.244 170.327C334.218 185.953 312.478 208.31 297.113 235.249C281.748 262.187 273.275 292.801 272.51 324.148C271.744 355.495 278.71 386.521 292.74 414.243C298.445 428.118 311.85 462.1 325.272 506.045C337.68 546.609 344.155 587.391 344.155 593.552C344.155 594.155 344.155 594.776 344.155 595.38C344.094 597.213 344.387 599.041 345.016 600.754C345.645 602.467 346.598 604.03 347.818 605.35C349.038 606.671 350.5 607.721 352.116 608.439C353.733 609.156 355.471 609.527 357.227 609.528H537.915C539.671 609.524 541.408 609.152 543.023 608.433C544.639 607.715 546.099 606.664 547.319 605.345C548.538 604.025 549.491 602.463 550.121 600.751C550.751 599.039 551.046 597.213 550.987 595.38C550.987 594.722 550.987 594.1 550.987 593.552C550.952 587.464 557.305 547.468 569.45 507.343Z" fill="#FFC100" stroke="#2E353A" stroke-width="2" stroke-linecap="round" stroke-linejoin="round"/>
<path d="M386.417 175.488C391.482 173.103 396.676 171.034 401.975 169.291" stroke="#2E353A" stroke-width="2" stroke-linecap="round" stroke-linejoin="round"/>
<path d="M328.143 221.81C328.143 221.81 342.405 198.046 373.748 182.051" stroke="#2E353A" stroke-width="2" stroke-linecap="round" stroke-linejoin="round"/>
<path d="M331.888 484.895C338.38 507.051 346.973 537.743 349.948 554.889C354.988 583.808 351.698 598.761 362.548 601.339" stroke="#2E353A" stroke-width="2" stroke-linecap="round" stroke-linejoin="round"/>
<path d="M323.942 458.462C323.942 458.462 325.692 464.403 328.51 473.507" stroke="#2E353A" stroke-width="2" stroke-linecap="round" stroke-linejoin="round"/>
<path d="M436.485 607.755V432.998C436.485 432.998 443.485 387.298 420.735 387.298C397.985 387.298 399.735 411.062 425.985 436.654C452.235 462.246 492.485 438.482 497.735 418.374C502.985 398.266 488.985 389.126 480.235 405.578C471.485 422.03 480.235 608.486 480.235 608.486" stroke="#2E353A" stroke-width="2" stroke-linecap="round" stroke-linejoin="round"/>
<path d="M542.483 608.468H353.64V654.241H542.483V608.468Z" fill="white" stroke="#2E353A" stroke-width="2" stroke-linecap="round" stroke-linejoin="round"/>
<path d="M542.483 665.136H353.64V710.909H542.483V665.136Z" fill="white" stroke="#2E353A" stroke-width="2" stroke-linecap="round" stroke-linejoin="round"/>
<path d="M542.483 654.241H353.64V665.136H542.483V654.241Z" fill="#2E353A" stroke="#2E353A" stroke-linecap="round" stroke-linejoin="round"/>
<path d="M542.483 721.804H353.64V767.577H542.483V721.804Z" fill="white" stroke="#2E353A" stroke-width="2" stroke-linecap="round" stroke-linejoin="round"/>
<path d="M522.725 648.117H536.76" stroke="#2E353A" stroke-linecap="round" stroke-linejoin="round"/>
<path d="M361.06 648.117H515.97" stroke="#2E353A" stroke-linecap="round" stroke-linejoin="round"/>
<path d="M486.325 705.681H531.563" stroke="#2E353A" stroke-linecap="round" stroke-linejoin="round"/>
<path d="M389.095 705.681H481.127" stroke="#2E353A" stroke-linecap="round" stroke-linejoin="round"/>
<path d="M374.027 705.681H381.815" stroke="#2E353A" stroke-linecap="round" stroke-linejoin="round"/>
<path d="M542.483 710.909H353.64V721.804H542.483V710.909Z" fill="#2E353A" stroke="#2E353A" stroke-linecap="round" stroke-linejoin="round"/>
<path d="M442.873 731.84H378.228V766.992H442.873V731.84Z" fill="#FFC100" stroke="#2E353A" stroke-linecap="round" stroke-linejoin="round"/>
<path d="M526.995 731.84H462.35V766.992H526.995V731.84Z" fill="#FFC100" stroke="#2E353A" stroke-linecap="round" stroke-linejoin="round"/>
<path d="M585.148 767.577C572.758 756.225 519.855 708.496 504.455 707.253C489.37 705.992 435.82 754.269 421.33 767.577H585.148Z" fill="#2E353A" stroke="#2E353A" stroke-linecap="round" stroke-linejoin="round"/>
<path d="M789.39 767.577H804.58" stroke="#2E353A" stroke-linecap="round" stroke-linejoin="round"/>
<path d="M94.0449 767.577H774.2" stroke="#2E353A" stroke-linecap="round" stroke-linejoin="round"/>
<path d="M70.4199 767.577H82.2324" stroke="#2E353A" stroke-linecap="round" stroke-linejoin="round"/>
<path d="M758.817 663.253H713.405V729.792H732.217H758.817H777.647V696.523L758.817 663.253Z" fill="#2E353A" stroke="#2E353A" stroke-linecap="round" stroke-linejoin="round"/>
<path d="M777.647 729.792H756.84V744.91H777.647V729.792Z" fill="white" stroke="#2E353A" stroke-linecap="round" stroke-linejoin="round"/>
<path d="M679.647 729.043C679.647 729.043 702.397 716.247 694.522 652.267L665.647 635.815L615.772 627.589L571.147 629.417V655.923C571.147 655.923 596.522 678.773 599.147 686.085C600.794 691.089 601.68 696.332 601.772 701.623V727.215L679.647 729.043Z" fill="#FFC100" stroke="#2E353A" stroke-linecap="round" stroke-linejoin="round"/>
<path d="M694.522 652.267L679.647 729.043" stroke="#2E353A" stroke-linecap="round" stroke-linejoin="round"/>
<path d="M665.647 635.815L649.022 729.043" stroke="#2E353A" stroke-linecap="round" stroke-linejoin="round"/>
<path d="M615.772 627.589L603.522 697.053" stroke="#2E353A" stroke-linecap="round" stroke-linejoin="round"/>
<path d="M572.897 652.267C572.897 652.267 601.772 665.063 613.147 673.289C624.522 681.515 622.772 698.881 622.772 698.881" stroke="#2E353A" stroke-linecap="round" stroke-linejoin="round"/>
<path d="M713.807 730.268H578.13V742.15H713.807V730.268Z" fill="white" stroke="#2E353A" stroke-linecap="round" stroke-linejoin="round"/>
<path d="M740.897 699.795H769.23L754.022 672.375H740.897V699.795Z" fill="white" stroke="#2E353A" stroke-linecap="round" stroke-linejoin="round"/>
<path d="M736.522 672.375H724.272V699.795H736.522V672.375Z" fill="white" stroke="#2E353A" stroke-linecap="round" stroke-linejoin="round"/>
<path d="M661.448 729.792H578.848V750.394H661.448V729.792Z" fill="white" stroke="#2E353A" stroke-linecap="round" stroke-linejoin="round"/>
<path d="M739.697 767.243C749.142 765.461 755.415 756.019 753.709 746.154C752.002 736.288 742.963 729.735 733.519 731.518C724.074 733.3 717.801 742.742 719.507 752.607C721.213 762.473 730.253 769.026 739.697 767.243Z" fill="#2E353A" stroke="#2E353A" stroke-linecap="round" stroke-linejoin="round"/>
<path d="M736.575 760.028C742.171 760.028 746.707 755.289 746.707 749.444C746.707 743.598 742.171 738.859 736.575 738.859C730.979 738.859 726.442 743.598 726.442 749.444C726.442 755.289 730.979 760.028 736.575 760.028Z" fill="white" stroke="#2E353A" stroke-linecap="round" stroke-linejoin="round"/>
<path d="M605.765 767.282C615.215 765.534 621.52 756.115 619.847 746.243C618.173 736.372 609.156 729.786 599.706 731.534C590.255 733.281 583.951 742.701 585.624 752.572C587.297 762.444 596.314 769.03 605.765 767.282Z" fill="#2E353A" stroke="#2E353A" stroke-linecap="round" stroke-linejoin="round"/>
<path d="M602.7 760.028C608.296 760.028 612.832 755.289 612.832 749.444C612.832 743.598 608.296 738.859 602.7 738.859C597.104 738.859 592.567 743.598 592.567 749.444C592.567 755.289 597.104 760.028 602.7 760.028Z" fill="white" stroke="#2E353A" stroke-linecap="round" stroke-linejoin="round"/>
<path d="M656.41 762.736C663.479 755.955 663.947 744.472 657.456 737.088C650.965 729.704 639.972 729.215 632.903 735.995C625.834 742.776 625.365 754.259 631.857 761.643C638.348 769.027 649.341 769.516 656.41 762.736Z" fill="#2E353A" stroke="#2E353A" stroke-linecap="round" stroke-linejoin="round"/>
<path d="M644.648 760.028C650.244 760.028 654.78 755.289 654.78 749.444C654.78 743.598 650.244 738.859 644.648 738.859C639.052 738.859 634.515 743.598 634.515 749.444C634.515 755.289 639.052 760.028 644.648 760.028Z" fill="white" stroke="#2E353A" stroke-linecap="round" stroke-linejoin="round"/>
<path d="M638.96 697.967H595.21C592.069 697.967 589.522 700.627 589.522 703.908V723.102C589.522 726.383 592.069 729.043 595.21 729.043H638.96C642.101 729.043 644.647 726.383 644.647 723.102V703.908C644.647 700.627 642.101 697.967 638.96 697.967Z" fill="#2E353A" stroke="#2E353A" stroke-linecap="round" stroke-linejoin="round"/>
<path d="M567.647 729.043V638.648H585.147V729.043" stroke="#2E353A" stroke-linecap="round" stroke-linejoin="round"/>
<path d="M567.77 650.622H584.955" stroke="#2E353A" stroke-linecap="round" stroke-linejoin="round"/>
<path d="M567.77 664.734H584.955" stroke="#2E353A" stroke-linecap="round" stroke-linejoin="round"/>
<path d="M567.77 678.846H584.955" stroke="#2E353A" stroke-linecap="round" stroke-linejoin="round"/>
<path d="M567.77 692.977H584.955" stroke="#2E353A" stroke-linecap="round" stroke-linejoin="round"/>
<path d="M567.77 707.089H584.955" stroke="#2E353A" stroke-linecap="round" stroke-linejoin="round"/>
<path d="M567.77 721.201H584.955" stroke="#2E353A" stroke-linecap="round" stroke-linejoin="round"/>
<path d="M217.63 769.35H186.13V195.358L217.63 233.618V769.35Z" stroke="#2E353A" stroke-linecap="round" stroke-linejoin="round"/>
<path d="M186.445 648.702H217.332L186.445 617.498H217.332L186.445 648.702Z" stroke="#2E353A" stroke-linecap="round" stroke-linejoin="round"/>
<path d="M186.445 616.712H217.332L186.445 585.508H217.332L186.445 616.712Z" stroke="#2E353A" stroke-linecap="round" stroke-linejoin="round"/>
<path d="M186.445 584.722H217.332L186.445 553.518H217.332L186.445 584.722Z" stroke="#2E353A" stroke-linecap="round" stroke-linejoin="round"/>
<path d="M186.445 552.732H217.332L186.445 521.528H217.332L186.445 552.732Z" stroke="#2E353A" stroke-linecap="round" stroke-linejoin="round"/>
<path d="M186.445 520.742H217.332L186.445 489.538H217.332L186.445 520.742Z" stroke="#2E353A" stroke-linecap="round" stroke-linejoin="round"/>
<path d="M186.445 488.752H217.332L186.445 457.548H217.332L186.445 488.752Z" stroke="#2E353A" stroke-linecap="round" stroke-linejoin="round"/>
<path d="M186.445 456.762H217.332L186.445 425.558H217.332L186.445 456.762Z" stroke="#2E353A" stroke-linecap="round" stroke-linejoin="round"/>
<path d="M186.445 424.772H217.332L186.445 393.568H217.332L186.445 424.772Z" stroke="#2E353A" stroke-linecap="round" stroke-linejoin="round"/>
<path d="M186.445 392.782H217.332L186.445 361.578H217.332L186.445 392.782Z" stroke="#2E353A" stroke-linecap="round" stroke-linejoin="round"/>
<path d="M186.445 360.792H217.332L186.445 329.588H217.332L186.445 360.792Z" stroke="#2E353A" stroke-linecap="round" stroke-linejoin="round"/>
<path d="M186.445 328.802H217.332L186.445 297.598H217.332L186.445 328.802Z" stroke="#2E353A" stroke-linecap="round" stroke-linejoin="round"/>
<path d="M186.445 296.812H217.332L186.445 265.608H217.332L186.445 296.812Z" stroke="#2E353A" stroke-linecap="round" stroke-linejoin="round"/>
<path d="M186.445 264.822H217.332L186.445 233.618H217.332L186.445 264.822Z" stroke="#2E353A" stroke-linecap="round" stroke-linejoin="round"/>
<path d="M363.878 265.682L348.618 255.646H239.715L226.415 265.682H363.878Z" stroke="#2E353A" stroke-linecap="round" stroke-linejoin="round"/>
<path d="M366.397 264.822H100.397V272.134H366.397V264.822Z" fill="#2E353A" stroke="#2E353A" stroke-linecap="round" stroke-linejoin="round"/>
<path d="M348.617 255.646L186.13 195.358L239.715 255.646" stroke="#2E353A" stroke-linecap="round" stroke-linejoin="round"/>
<path d="M186.147 195.358L100.397 264.822" stroke="#2E353A" stroke-linecap="round" stroke-linejoin="round"/>
<path d="M240.397 280.36H174.772V324.232H240.397V280.36Z" fill="#2E353A" stroke="#2E353A" stroke-linecap="round" stroke-linejoin="round"/>
<path d="M226.712 289.5H188.44V302.296H226.712V289.5Z" fill="white" stroke="#2E353A" stroke-linecap="round" stroke-linejoin="round"/>
<path d="M366.397 272.134V350.958" stroke="#2E353A" stroke-linecap="round" stroke-linejoin="round"/>
<path d="M376.373 377.884H356.93V400.899H376.373V377.884Z" fill="#2E353A" stroke="#2E353A" stroke-linecap="round" stroke-linejoin="round"/>
<path d="M356.93 377.884L366.66 349.459L376.39 377.884" stroke="#2E353A" stroke-linecap="round" stroke-linejoin="round"/>
<path d="M313.95 655.612L355.95 724.967L366.45 716.942L335.545 652.377C334.156 649.474 332.02 647.034 329.378 645.329C326.735 643.624 323.689 642.722 320.583 642.725C319.157 642.752 317.763 643.176 316.546 643.952C315.329 644.728 314.331 645.829 313.656 647.141C312.98 648.453 312.652 649.929 312.704 651.418C312.755 652.907 313.186 654.355 313.95 655.612Z" fill="#FFC100" stroke="#2E353A" stroke-linecap="round" stroke-linejoin="round"/>
<path d="M362.757 707.911L319.55 740.011C319.55 740.011 323.4 757.048 348.355 756.043C373.31 755.037 372.365 727.965 372.365 727.965L362.757 707.911Z" fill="#2E353A" stroke="white" stroke-linecap="round" stroke-linejoin="round"/>
<path d="M242.743 686.853L321.003 650.019C323.584 648.805 326.485 648.552 329.223 649.3C331.961 650.049 334.371 651.753 336.053 654.132C337.035 655.52 337.741 657.101 338.129 658.779C338.517 660.458 338.58 662.2 338.312 663.904C338.044 665.608 337.453 667.239 336.572 668.7C335.691 670.161 334.538 671.423 333.183 672.412L247.555 735.021L242.743 686.853Z" fill="#FFC100" stroke="#2E353A" stroke-linecap="round" stroke-linejoin="round"/>
<path d="M231.227 731.986H150.57V745.02H231.227V731.986Z" fill="white" stroke="#2E353A" stroke-linecap="round" stroke-linejoin="round"/>
<path d="M191.853 694.878H121.765V724.967H191.853V694.878Z" fill="#2E353A" stroke="#2E353A" stroke-linecap="round" stroke-linejoin="round"/>
<path d="M182.735 660.767H242.235C243.627 660.767 244.963 661.345 245.947 662.373C246.932 663.402 247.485 664.797 247.485 666.251V724.93H177.467V666.251C177.467 665.529 177.604 664.815 177.869 664.148C178.134 663.482 178.522 662.876 179.011 662.367C179.501 661.857 180.081 661.454 180.72 661.179C181.359 660.905 182.044 660.765 182.735 660.767Z" fill="#FFC100" stroke="#2E353A" stroke-linecap="round" stroke-linejoin="round"/>
<path d="M121.047 767.577H235.795C239.42 767.577 242.896 766.073 245.459 763.396C248.022 760.718 249.462 757.087 249.462 753.301C249.462 749.512 248.023 745.879 245.46 743.199C242.898 740.519 239.421 739.01 235.795 739.006H121.047C117.421 739.01 113.945 740.519 111.382 743.199C108.819 745.879 107.38 749.512 107.38 753.301C107.38 757.087 108.82 760.718 111.383 763.396C113.946 766.073 117.423 767.577 121.047 767.577Z" fill="#2E353A" stroke="#2E353A" stroke-linecap="round" stroke-linejoin="round"/>
<path d="M138.337 767.577H253.067C256.694 767.577 260.172 766.074 262.738 763.397C265.304 760.72 266.748 757.089 266.752 753.301C266.752 749.509 265.311 745.873 262.744 743.193C260.178 740.512 256.697 739.006 253.067 739.006H138.337C134.708 739.006 131.227 740.512 128.661 743.193C126.094 745.873 124.652 749.509 124.652 753.301C124.657 757.089 126.101 760.72 128.667 763.397C131.233 766.074 134.711 767.577 138.337 767.577Z" fill="white" stroke="#2E353A" stroke-linecap="round" stroke-linejoin="round"/>
<path d="M247.538 724.967H121.765V735.002H247.538V724.967Z" fill="white" stroke="#2E353A" stroke-linecap="round" stroke-linejoin="round"/>
<path d="M147.7 753.301C147.7 755.087 147.193 756.833 146.243 758.318C145.293 759.803 143.943 760.96 142.363 761.644C140.784 762.327 139.046 762.506 137.369 762.157C135.692 761.809 134.151 760.949 132.942 759.686C131.733 758.423 130.91 756.814 130.576 755.062C130.243 753.311 130.414 751.495 131.068 749.845C131.723 748.195 132.831 746.784 134.252 745.792C135.674 744.8 137.345 744.27 139.055 744.27C141.348 744.27 143.547 745.222 145.168 746.915C146.789 748.609 147.7 750.906 147.7 753.301Z" fill="#2E353A" stroke="#2E353A" stroke-linecap="round" stroke-linejoin="round"/>
<path d="M162.103 762.331C166.877 762.331 170.748 758.288 170.748 753.301C170.748 748.313 166.877 744.27 162.103 744.27C157.328 744.27 153.458 748.313 153.458 753.301C153.458 758.288 157.328 762.331 162.103 762.331Z" fill="#2E353A" stroke="#2E353A" stroke-linecap="round" stroke-linejoin="round"/>
<path d="M185.132 762.331C189.907 762.331 193.777 758.288 193.777 753.301C193.777 748.313 189.907 744.27 185.132 744.27C180.358 744.27 176.487 748.313 176.487 753.301C176.487 758.288 180.358 762.331 185.132 762.331Z" fill="#2E353A" stroke="#2E353A" stroke-linecap="round" stroke-linejoin="round"/>
<path d="M216.825 753.301C216.825 755.087 216.318 756.833 215.368 758.318C214.418 759.803 213.068 760.96 211.488 761.644C209.909 762.327 208.171 762.506 206.494 762.157C204.817 761.809 203.276 760.949 202.067 759.686C200.858 758.423 200.035 756.814 199.701 755.062C199.368 753.311 199.539 751.495 200.193 749.845C200.848 748.195 201.956 746.784 203.377 745.792C204.799 744.8 206.47 744.27 208.18 744.27C210.473 744.27 212.672 745.222 214.293 746.915C215.914 748.609 216.825 750.906 216.825 753.301Z" fill="#2E353A" stroke="#2E353A" stroke-linecap="round" stroke-linejoin="round"/>
<path d="M239.873 753.301C239.873 755.087 239.365 756.833 238.416 758.318C237.466 759.803 236.116 760.96 234.536 761.644C232.956 762.327 231.218 762.506 229.541 762.157C227.864 761.809 226.324 760.949 225.115 759.686C223.906 758.423 223.082 756.814 222.749 755.062C222.415 753.311 222.586 751.495 223.241 749.845C223.895 748.195 225.003 746.784 226.425 745.792C227.846 744.8 229.518 744.27 231.228 744.27C233.52 744.27 235.719 745.222 237.34 746.915C238.962 748.609 239.873 750.906 239.873 753.301Z" fill="#2E353A" stroke="#2E353A" stroke-linecap="round" stroke-linejoin="round"/>
<path d="M262.902 753.301C262.902 755.087 262.395 756.834 261.444 758.319C260.493 759.805 259.142 760.962 257.562 761.645C255.981 762.328 254.242 762.506 252.564 762.156C250.887 761.806 249.346 760.944 248.138 759.68C246.93 758.415 246.108 756.804 245.776 755.051C245.445 753.298 245.618 751.482 246.275 749.832C246.932 748.182 248.043 746.773 249.467 745.783C250.891 744.793 252.564 744.267 254.275 744.27C255.409 744.27 256.533 744.504 257.58 744.958C258.628 745.412 259.58 746.078 260.382 746.916C261.183 747.755 261.818 748.751 262.251 749.846C262.683 750.942 262.905 752.116 262.902 753.301Z" fill="#2E353A" stroke="#2E353A" stroke-linecap="round" stroke-linejoin="round"/>
<path d="M330.12 660.767C330.12 659.772 329.837 658.8 329.308 657.973C328.778 657.145 328.026 656.501 327.145 656.121C326.265 655.741 325.296 655.643 324.362 655.838C323.428 656.034 322.571 656.514 321.898 657.219C321.226 657.924 320.769 658.821 320.585 659.798C320.402 660.774 320.5 661.785 320.867 662.704C321.233 663.622 321.853 664.406 322.647 664.956C323.44 665.506 324.373 665.798 325.325 665.794C325.956 665.794 326.581 665.664 327.164 665.411C327.747 665.158 328.276 664.788 328.722 664.321C329.167 663.854 329.52 663.299 329.76 662.69C330 662.08 330.122 661.427 330.12 660.767Z" fill="#2E353A" stroke="#2E353A" stroke-linecap="round" stroke-linejoin="round"/>
<path d="M236.985 668.792H186.095V700.892H236.985V668.792Z" fill="white" stroke="#2E353A" stroke-linecap="round" stroke-linejoin="round"/>
<path d="M236.985 668.792H209.143V700.892H236.985V668.792Z" fill="white" stroke="#2E353A" stroke-linecap="round" stroke-linejoin="round"/>
</svg>
