<svg width="40" height="39" viewBox="0 0 40 39" fill="none" xmlns="http://www.w3.org/2000/svg">
<path d="M7 4.87499H16.75V8.12499H7V4.87499ZM2.125 11.375H10.25V14.625H2.125V11.375ZM5.375 30.875H13.5V34.125H5.375V30.875ZM22.8112 17.2412C24.0625 17.615 24.9237 18.5087 25.3625 19.6137L32.3013 8.05999C33.3575 6.30499 32.7888 4.06249 31.0338 2.97374C29.62 2.12874 27.8 2.30749 26.5975 3.44499L21.0238 8.66124C20.3738 9.26249 20 10.1237 20 11.0175V17.4037C20.585 17.16 21.625 16.8675 22.8112 17.2412ZM17.7412 19.9387C18.0012 19.0937 18.5212 18.3787 19.1875 17.875H5.83C3.75 17.875 2.125 19.5 2.125 21.58C2.125 23.2375 3.21375 24.6837 4.80625 25.1387L12.135 27.235C12.9963 27.4787 13.9225 27.365 14.7025 26.8937L19.0737 24.2775C18.4428 23.7708 17.9785 23.0864 17.7409 22.3128C17.5033 21.5393 17.5034 20.7122 17.7412 19.9387ZM36.5912 30.2412L32.8862 23.5625C32.4376 22.7916 31.7011 22.2305 30.8388 22.0025L25.6875 20.7025C25.6875 21.2225 25.6875 21.775 25.5088 22.3112C25.2598 23.1463 24.7466 23.8782 24.0463 24.3968C23.346 24.9154 22.4964 25.1929 21.625 25.1875C20.6338 25.1875 20 24.83 20 24.83V34.125C18.2125 34.125 16.75 35.5875 16.75 37.375H26.5C26.5 35.5875 25.0375 34.125 23.25 34.125V27.17L30.7413 34.6612C32.1875 36.1075 34.5275 36.1075 35.9738 34.6612C37.1437 33.4912 37.4037 31.6875 36.5912 30.2412ZM20.91 23.4487C22.1938 23.8387 23.5588 23.1237 23.9487 21.8237C24.3388 20.54 23.6238 19.175 22.3237 18.785C21.04 18.395 19.675 19.11 19.285 20.41C18.895 21.6937 19.6263 23.0587 20.91 23.4487Z" fill="#F8F8F8"/>
</svg>
